PathFileType	4	(X/Y/Z)	C:/Users/beibeiliu/ov580/test_trc/User2\sequence.24_training_dense_left.trc
DataRate	CameraRate	NumFrames	NumMarkers	Units	OrigDataRate	OrigDataStartFrame	OrigNumFrames
120	120	21	19	mm	120	395	451
Frame#	Time	ThumbCMC			ThumbMCP			ThumbIP			ThumbTip			IndexMCP			IndexPIP			IndexTip			MiddleMCP			MiddlePIP			MiddleTip			RingMCP			RingPIP			RingTip			PinkyMCP			PinkyPIP			PinkyTip			BackHand1			BackHand2			BackHand3	
		X0	Y0	Z0	X1	Y1	Z1	X2	Y2	Z2	X3	Y3	Z3	X4	Y4	Z4	X5	Y5	Z5	X6	Y6	Z6	X7	Y7	Z7	X8	Y8	Z8	X9	Y9	Z9	X10	Y10	Z10	X11	Y11	Z11	X12	Y12	Z12	X13	Y13	Z13	X14	Y14	Z14	X15	Y15	Z15	X16	Y16	Z16	X17	Y17	Z17	X18	Y18	Z18	
394	3.28333	-187.419	-42.6397	73.9345	-165.902	-20.9755	45.8098	-135.193	-25.4011	23.6527	-112.339	-27.054	13.0583	-165.48	-78.5707	3.45686	-154.568	-82.9941	-25.2923	-140.795	-86.1408	-46.3881	-147.62	-89.8943	4.02028	-134.064	-91.5347	-24.1232	-117.638	-93.3925	-55.5762	-121.324	-84.1693	15.7719	-101.478	-57.8497	6.30302	-102.497	-34.4823	33.3081	-103.337	-84.0713	40.0705	-91.0149	-52.8583	33.3897	-100.124	-30.412	57.3915	-151.587	-99.7465	66.6968	-167.553	-100.578	95.5345	-188.204	-84.9985	68.6971	
395	3.29167	-183.93	-40.7818	70.7614	-160.026	-26.2317	46.4035	-131.435	-27.2998	25.445	-107.896	-31.9519	13.5072	-163.78	-79.5385	2.9101	-149.576	-87.057	-20.7147	-136.76	-91.7117	-42.6346	-143.464	-93.7153	1.7279	-130.863	-95.2404	-24.6145	-117.386	-98.3053	-51.192	-115.426	-87.1	15.2136	-97.9078	-64.7636	6.27091	-101.777	-37.092	34.1693	-104.003	-84.8654	38.5377	-84.9664	-55.2999	35.472	-98.6831	-31.5028	57.1022	-149.926	-100.217	65.7032	-164.146	-102.159	99.1715	-183.599	-86.8321	71.0722	
396	3.3	-180.143	-40.9565	72.7884	-155.929	-26.7727	45.8653	-125.791	-29.7257	21.4003	-101.894	-37.4022	13.2059	-159.577	-82.0213	3.7956	-146.647	-91.3998	-20.9164	-131.463	-99.8776	-45.7553	-140.999	-96.0212	7.04204	-127.47	-99.5853	-26.5979	-111.768	-105.803	-53.3353	-113.346	-90.4221	16.4772	-93.5862	-70.5418	7.6761	-96.2713	-40.299	34.6296	-98.4994	-88.3182	40.0794	-81.8309	-60.7254	35.5748	-93.4546	-37.9847	51.7395	-147.97	-103.88	68.9072	-161.491	-105.518	100.177	-180.011	-86.1501	68.3384	
397	3.30833	-178.987	-40.0123	72.2105	-152.364	-29.4854	47.1478	-120.851	-35.1022	24.2271	-97.1622	-44.2184	12.2743	-155.083	-86.2952	7.84879	-144.507	-96.0783	-19.1853	-134.118	-101.668	-41.2885	-137.66	-100.909	4.26601	-124.039	-107.683	-18.3258	-111.357	-112.272	-50.2237	-111.279	-95.4008	17.587	-88.0916	-73.7552	10.5191	-90.5538	-48.0766	31.8348	-99.0645	-92.7375	40.4445	-78.45	-65.9031	36.1192	-89.1589	-42.8146	53.0038	-145.811	-105.849	74.4821	-160.263	-103.344	102.38	-179.036	-84.9434	69.0782	
398	3.31667	-172.791	-42.3151	72.9995	-147.727	-31.7398	47.9831	-118.074	-38.4829	22.7748	-95.1191	-46.7941	11.3817	-156.123	-88.9657	8.98836	-144.346	-100.053	-13.1892	-131.464	-110.974	-42.0217	-138.242	-104.944	9.51295	-124.836	-111.614	-21.5906	-112.569	-117.727	-44.4359	-109.63	-101.016	23.736	-90.0526	-77.9165	9.93764	-87.8009	-50.0134	34.5441	-95.1679	-97.5865	42.8371	-79.5927	-70.9538	35.0891	-84.029	-47.9639	55.3357	-144.685	-104.419	72.9546	-160.501	-100.809	102.191	-177.899	-86.1436	73.6712	
399	3.325	-170.909	-43.6053	73.0946	-146.247	-32.1061	47.4974	-116.667	-40.2957	22.5419	-93.6132	-49.5424	11.1663	-150.919	-92.5353	10.8135	-142.302	-102.929	-16.7552	-130.25	-115.272	-38.7602	-137.527	-106.778	12.5076	-125.192	-114.4	-15.703	-108.84	-126.095	-40.4835	-110.786	-101.903	25.3871	-86.8975	-80.9384	11.0668	-88.7845	-52.1119	33.8015	-98.2406	-98.952	47.3095	-79.0437	-74.2004	35.33	-82.8387	-47.6089	51.0983	-145.006	-106.107	74.7133	-162.699	-101.104	107.723	-175.723	-85.0285	73.3637	
400	3.33333	-169.395	-42.3771	71.8033	-144.243	-33.2964	45.4796	-116.632	-42.0762	26.3531	-94.775	-52.4316	15.705	-153.271	-91.4929	7.07597	-141.233	-105.396	-14.3716	-131.29	-115.459	-36.2268	-136.101	-107.195	15.2559	-123.83	-114.866	-13.4009	-108.572	-127.33	-38.6117	-106.243	-104.155	22.9152	-85.7033	-80.777	13.2841	-85.7721	-52.8741	36.737	-96.9525	-99.7113	48.0543	-76.1231	-78.4324	35.8283	-80.1004	-47.3686	51.9535	-141.352	-106.257	78.692	-161.733	-98.3293	107.573	-175.67	-85.4498	74.0957	
401	3.34167	-170.015	-40.451	74.3725	-145.485	-31.6506	47.7396	-116.198	-42.3965	26.4311	-92.071	-50.5444	12.8861	-150.973	-91.5368	14.2749	-142.919	-101.234	-11.9016	-127.089	-116.12	-31.9627	-137.26	-105.065	14.4332	-123.327	-114.938	-16.5552	-107.887	-128.331	-37.0264	-108.848	-102.576	25.4509	-84.9411	-85.1063	13.9856	-83.6752	-55.3526	33.7447	-96.0453	-99.473	45.4795	-77.1763	-78.0325	35.5583	-80.6109	-45.185	49.2438	-144.439	-104.448	78.4312	-159.811	-100.693	110.239	-177.192	-81.3273	74.0337	
402	3.35	-169.469	-39.0753	73.6939	-143.241	-30.795	44.6902	-114.603	-42.0837	25.8362	-93.0594	-48.6657	16.3134	-151.147	-89.4104	14.1448	-142.134	-102.154	-11.6214	-128.678	-114.996	-31.9642	-131.843	-108.169	13.0444	-119.503	-116.458	-12.7817	-108.36	-126.676	-36.4692	-107.948	-100.925	23.3154	-85.5567	-85.4034	13.4599	-87.3857	-51.9873	35.1019	-95.7374	-98.1384	46.983	-74.6021	-73.593	35.2014	-76.1011	-45.9173	49.1176	-143.408	-104.581	78.5939	-160.259	-97.592	107.402	-174.522	-81.0996	77.6395	
403	3.35833	-169.791	-38.6802	73.7496	-143.221	-31.1071	46.3783	-113.469	-40.8481	26.3815	-89.8159	-49.7933	15.047	-151.604	-90.1395	8.49502	-141.561	-100.528	-12.6347	-128.809	-112.909	-31.1181	-132.741	-105.389	15.6766	-122.72	-112.89	-11.6722	-105.278	-127.625	-40.7514	-110.959	-99.2932	26.3459	-86.3733	-81.5372	12.4799	-83.0278	-53.7445	33.9399	-95.5794	-97.1693	50.4537	-77.8382	-72.5727	34.4743	-75.8886	-43.6879	52.2535	-144.201	-103.181	79.3766	-157.669	-98.8159	108.056	-176.54	-79.5673	73.7709	
404	3.36667	-167.541	-40.3535	73.364	-142.774	-30.8429	46.7665	-115.408	-34.8238	26.6533	-90.4604	-48.2093	16.1284	-149.473	-89.619	9.43573	-139.925	-100.591	-10.5336	-125.975	-113.526	-33.1373	-134.555	-104.273	10.2529	-120.411	-113.162	-11.1982	-103.985	-125.939	-39.1664	-105.769	-101.566	26.2299	-86.2638	-79.3572	11.2111	-83.184	-53.2724	33.1502	-95.122	-94.5975	46.6786	-72.8418	-69.4258	37.8996	-77.3845	-44.203	50.4609	-142.871	-103.632	77.7608	-158.996	-97.9923	107.086	-177.305	-79.0873	75.6627	
405	3.375	-167.979	-39.2855	73.7488	-141.904	-30.0043	46.92	-112.394	-35.8905	24.3988	-91.1186	-46.4786	19.3399	-147.935	-90.742	12.1127	-139.075	-100.72	-14.2244	-124.85	-112.318	-30.4179	-131.859	-105.35	16.6644	-121.25	-112.762	-15.6988	-102.631	-126.684	-40.2361	-106.992	-99.1366	24.8002	-82.4872	-82.3311	15.0318	-84.3136	-50.8172	36.6475	-94.0308	-95.8765	48.5943	-74.9637	-68.6559	37.5513	-81.1091	-44.1694	54.4997	-141.083	-102.612	75.5374	-158.904	-98.2784	105.457	-172.969	-83.5716	73.6916	
406	3.38333	-167.286	-40.5227	72.8059	-142.405	-28.6849	47.8393	-111.837	-37.8722	26.1235	-89.2241	-42.8431	15.015	-150.25	-87.9233	10.7847	-136.974	-99.8665	-8.42369	-126.143	-110.192	-33.819	-134.253	-102.383	14.5756	-117.789	-114.431	-12.5689	-101.983	-125.956	-39.72	-107.798	-97.7172	26.4157	-85.3608	-81.0784	11.8438	-85.2045	-50.2971	34.2904	-92.02	-96.8772	52.293	-75.742	-69.8504	37.2548	-77.2275	-43.1861	58.6906	-139.738	-103.979	76.7971	-159.749	-96.7695	106.634	-172.157	-83.683	74.0249	
407	3.39167	-167.857	-37.1728	70.1934	-141.825	-27.1071	45.0152	-109.679	-36.1498	23.9175	-88.4656	-46.3125	17.146	-147.988	-85.5943	14.1259	-138.115	-98.253	-13.1681	-123.257	-111.263	-36.72	-133.218	-101.796	10.5507	-119.865	-111.515	-13.3282	-105.665	-120.523	-39.5474	-105.837	-97.616	23.5695	-81.9472	-80.65	14.5588	-85.6943	-48.5086	34.6737	-90.9057	-96.1035	50.0437	-71.6178	-70.0341	40.849	-78.769	-41.2843	61.2122	-138.938	-102.846	76.1489	-158.611	-97.1692	106.532	-174.724	-80.912	75.8868	
408	3.4	-168.225	-31.7493	74.9678	-138.915	-23.7622	45.6796	-110.078	-33.2315	29.2673	-86.66	-42.4153	17.8531	-146.984	-85.2285	10.313	-136.667	-95.1716	-15.0895	-126.394	-104.12	-34.4562	-131.021	-101.726	11.1585	-120.612	-107.33	-18.2072	-104.477	-119.046	-41.4312	-104.49	-97.0422	23.2638	-82.6863	-75.0125	14.9303	-82.4778	-49.111	41.115	-92.4381	-94.3755	48.2553	-74.7494	-68.0696	40.2833	-81.4224	-44.8924	60.0684	-141.724	-98.6968	75.5631	-156.64	-98.3294	105.36	-172.304	-77.0745	75.8696	
409	3.40833	-161.433	-32.7572	75.8567	-134.324	-19.1415	50.0239	-104.874	-36.22	31.6498	-83.2416	-44.3953	20.0882	-150.783	-74.8142	10.4623	-136.581	-89.4279	-13.5634	-127.707	-99.3113	-40.2431	-135.825	-94.1052	10.6603	-120.98	-103.218	-16.6724	-106.156	-114.7	-43.5488	-104.876	-94.9168	22.7289	-83.0972	-74.951	14.7486	-80.6715	-50.5641	43.2335	-96.3378	-94.081	47.3802	-73.1095	-69.469	41.7107	-77.8058	-47.5413	66.997	-144.802	-97.3361	78.292	-160.713	-91.5352	105.465	-175.502	-71.1684	72.9195	
410	3.41667	-157.325	-23.7391	76.0164	-124.653	-20.8375	52.2147	-97.1378	-28.7607	32.9423	-75.9514	-44.7159	22.775	-147.651	-70.4148	8.3568	-140.141	-78.3834	-17.5076	-129.4	-89.4052	-41.9444	-138.369	-85.9402	10.2208	-124.932	-94.8669	-17.923	-110.073	-105.511	-46.7176	-108.723	-94.7334	22.6047	-80.2283	-78.279	16.9007	-82.1192	-51.9741	43.1866	-97.8927	-97.7633	47.8064	-73.9188	-74.3148	41.0578	-79.3584	-51.1123	66.27	-148.883	-96.2644	75.8274	-163.326	-90.32	100.714	-175.39	-64.312	72.3365	
411	3.425	-147.137	-23.3319	84.0191	-116.006	-17.504	60.5583	-89.8424	-35.6922	39.0397	-73.4152	-52.8342	28.6908	-148.239	-56.0475	10.5631	-139.205	-70.4387	-17.2594	-131.073	-78.9065	-38.4681	-139.172	-79.3815	8.85708	-127.211	-87.4884	-18.6096	-114.316	-96.7182	-50.9612	-114.845	-89.7054	22.265	-83.5954	-82.0624	15.1191	-79.7459	-61.114	49.1936	-103.962	-98.2954	44.1528	-74.169	-82.8817	41.7643	-76.217	-63.2378	67.362	-154.053	-90.4724	73.5064	-167.025	-87.9871	99.315	-172.895	-57.6031	72.6272	
412	3.43333	-134.704	-18.7636	91.211	-103.232	-24.569	65.8488	-81.0846	-43.4415	42.2719	-69.1789	-60.2317	31.9532	-143.277	-45.9644	13.3685	-137.168	-54.744	-15.1032	-130.843	-60.1392	-39.7004	-142.022	-68.2701	8.11331	-131.068	-72.0107	-22.5884	-120.651	-78.5526	-53.07	-119.999	-83.9608	19.4517	-89.0966	-78.9841	14.3648	-82.0805	-66.9596	48.5401	-110.232	-100.903	38.4527	-79.5241	-87.5868	42.5346	-80.9766	-72.7245	71.644	-159.057	-83.5989	71.7641	-172.526	-77.7835	101.704	-168.351	-46.2271	74.3814	
413	3.44167	-118.988	-23.8761	96.5872	-91.1672	-33.9986	75.468	-76.4552	-54.7183	47.5117	-70.5769	-72.861	32.6296	-132.898	-28.8761	20.9155	-129.773	-35.5574	-11.6541	-125.181	-41.2744	-36.4859	-140.355	-52.4929	7.27865	-131.566	-53.6868	-20.6869	-122.589	-64.6357	-50.8615	-125.799	-77.0247	18.3629	-95.6841	-86.723	13.367	-83.8761	-79.5999	47.3157	-122.719	-94.1099	37.3065	-87.8211	-97.1233	41.7169	-87.2681	-89.963	71.061	-159.779	-68.4127	67.8917	-173.286	-67.288	103.137	-158.01	-31.3557	81.1768	
414	3.45	-107.88	-28.7335	107.444	-81.9367	-43.4734	77.6936	-75.5303	-63.666	51.6011	-76.9786	-81.8215	29.04	-121.579	-22.1818	25.3522	-120.337	-25.969	-2.27193	-119.503	-29.9924	-30.0692	-136.178	-40.487	16.4768	-129.344	-42.7821	-16.7978	-122.128	-45.583	-44.7621	-127.558	-68.3301	18.8205	-101.935	-84.7102	12.2809	-90.9224	-89.5493	47.6936	-132.733	-89.6264	34.4753	-100.796	-98.8126	36.8352	-98.9246	-103.581	69.5048	-159.682	-56.3952	69.8003	-174.417	-55.1719	103.07	-148.562	-23.9449	91.6645	
